<?xml version="1.0" encoding="utf-8"?>
<!-- Generator: Adobe Illustrator 17.1.0, SVG Export Plug-In . SVG Version: 6.00 Build 0)  -->
<!DOCTYPE svg PUBLIC "-//W3C//DTD SVG 1.1//EN" "http://www.w3.org/Graphics/SVG/1.1/DTD/svg11.dtd">
<svg version="1.1" id="Layer_1" xmlns="http://www.w3.org/2000/svg" xmlns:xlink="http://www.w3.org/1999/xlink" x="0px" y="0px"
	 viewBox="0 0 55.2 72.2" enable-background="new 0 0 55.2 72.2" xml:space="preserve">
<path fill="#FFFFFF" d="M32.4,21.9c1.3-1.9,2.8-3.7,3.8-5.6c2.2-4,3.3-8.2,3.4-12.6c0-0.8-0.4-1.7-0.4-2.5c0-0.4,0.6-0.9,0.9-1.3
	c0.3,0.4,0.8,0.8,0.8,1.1c-0.3,6.3-1.3,12.6-5.2,18.2c-0.4,0.5-0.7,1.1-1,1.6c-0.3,0.5-0.5,1.1-0.8,1.8c0.3,0.2,0.6,0.5,1,0.7
	c4.5,2.4,3.7,5.9,1.2,8.9c-2.6,3.1-7.8,3.9-11.5,1.8c-2.6-1.5-5.1-3.2-6-6c-0.7-2.2-0.4-4.3,1.7-5.9c0,0,0.1-0.1,0.1-0.1
	C24.8,18.1,27.3,18.1,32.4,21.9z M26.4,24.1c1.7,0,3-0.7,3-1.5c0-0.8-1.5-1.6-3.1-1.5c-1.7,0-3,0.7-3,1.5
	C23.2,23.4,24.6,24.1,26.4,24.1z"/>
<path fill="#FFFFFF" d="M8.2,50.6C20.6,56,33.2,55.7,45.8,52c-0.1,0.2-0.2,0.8-0.4,1.3c-2.6,5.5-4.6,11.2-5.4,17.3
	c-0.1,0.4-0.7,1-1.1,1c-7.7,0.7-15.4,0.8-23.1,0c-0.4,0-1-0.6-1.1-1.1c-1.2-4.4-2.2-8.9-3.5-13.3C10.6,55,9.3,52.8,8.2,50.6z
	 M36.5,69.7c0.2,0.1,0.4,0.1,0.7,0.2c1.1-4.5,2.2-9.1,3.3-13.6c-0.2,0-0.4-0.1-0.5-0.1C37.4,60.3,36,64.8,36.5,69.7z M17.6,70.1
	c1.2-3.2-0.8-12.9-3.6-14.4C15.2,60.5,16.4,65.2,17.6,70.1z M31.8,69.9c1.2-4.2,1.8-8.5,1.5-12.8C31.6,61.2,30.8,65.4,31.8,69.9z
	 M27.2,70c1.3-2.6,1.2-10.7-0.1-12.5C26.3,61.7,26.2,65.9,27.2,70z M21.3,57c-0.1,4.3,0.4,8.5,1.5,12.6C23.1,65.3,23.4,61.1,21.3,57
	z"/>
<path fill="#FFFFFF" d="M40.1,30.4c1.4,1.6,2.6,2.8,3.7,4.1c1.3,1.7,0.7,3.9-1,5.3c-3.3,2.9-7.3,3-11.3,3.2
	c-4.5,0.2-9.1,0.1-13.6,0.4c-1.9,0.1-3.9,0.9-5.6,1.7c-0.8,0.4-1.3,1.5-1.9,2.4c-0.3,0.4-0.4,1-0.8,1.7c-1.2-1.4-2.4-2.6-3.4-4
	c-1.3-2-0.6-4.3,1.2-5.8c2.6-2.1,5.7-2.6,8.9-2.7c4.9-0.2,9.8-0.2,14.7-0.4c1.4-0.1,2.8-0.3,4.2-0.8C37.5,34.7,39.7,33.6,40.1,30.4z
	"/>
<path fill="#FFFFFF" d="M12.7,50.4c0.5-3.4,2.6-5.2,6.1-5.3C24.4,45,30,45,35.6,44.8c3.3-0.1,6.3-1,8.9-3.1c0.7-0.6,1.3-1.2,1.9-1.9
	c3.2,2.2,3.4,5.8,0.8,8.6c-2.1,2.3-5,2.9-7.8,3.3c-7.9,1.1-15.8,1.3-23.7-0.4c-0.9-0.2-1.8-0.5-2.6-0.7C13,50.6,12.9,50.5,12.7,50.4
	z"/>
<path fill="#FFFFFF" d="M10.3,35.6c0-3.2,1.8-5.5,4.3-5.9c1.2-0.2,2.1,0.1,2.8,1.3c0.7,1.2,1.9,2.1,2.9,3.2
	C17,34.3,13.6,33.7,10.3,35.6z"/>
</svg>
