<?xml version="1.0" encoding="utf-8"?>
<!-- Generator: Adobe Illustrator 17.1.0, SVG Export Plug-In . SVG Version: 6.00 Build 0)  -->
<!DOCTYPE svg PUBLIC "-//W3C//DTD SVG 1.1//EN" "http://www.w3.org/Graphics/SVG/1.1/DTD/svg11.dtd">
<svg version="1.1" id="Capa_1" xmlns="http://www.w3.org/2000/svg" xmlns:xlink="http://www.w3.org/1999/xlink" x="0px" y="0px"
	 viewBox="74.7 0 353.3 402.7" enable-background="new 74.7 0 353.3 402.7" xml:space="preserve">
<g>
	<g>
		<path fill="#FFFFFF" d="M244.1,399.6c12,2.4,24-1.2,32.5-9.6c3.3-3.3,5.9-7.2,7.8-11.7L420.5,53.4c5.9-14,2.5-29.6-8.5-40.1
			c-11-10.4-26.9-12.8-40.5-6.1L251.7,65.8L132.1,6.9c-14-6.9-30.2-4.3-41.3,6.8C80.2,24.2,77.2,39.3,82.9,53l135.2,325.2
			C222.8,389.5,232.2,397.3,244.1,399.6z M241.7,368.3L106.7,43c-2.4-5.8,0.8-9.8,2.2-11.2c1.3-1.3,5.8-5,11.9-2l125.3,61.7
			c3.5,1.8,7.7,1.8,11.2,0l125.5-61.3c6-2.9,10.4,0.7,11.7,1.8c1.2,1.2,5,5.3,2.5,11.5L260.8,368.4c-0.6,1.3-1.3,2.5-2.3,3.5
			c-2.4,2.4-5.9,3.4-9.5,2.6C246.7,374,243.5,372.6,241.7,368.3z"/>
	</g>
</g>
</svg>
