<?xml version="1.0" encoding="utf-8"?>
<!-- Generator: Adobe Illustrator 17.1.0, SVG Export Plug-In . SVG Version: 6.00 Build 0)  -->
<!DOCTYPE svg PUBLIC "-//W3C//DTD SVG 1.1//EN" "http://www.w3.org/Graphics/SVG/1.1/DTD/svg11.dtd">
<svg version="1.1" id="Layer_1" x="0px" y="0px"
	 viewBox="0 320 1600 80" enable-background="new 0 320 1600 80" xml:space="preserve">
<path fill="#FFFFFF" d="M0,320c0,10.9,0,21.8,0,32.7c1,1.5,2,2.9,3.5,4.2c9.8,6.2,19.9,7.6,30.2,1.4c4.7-2.8,9.4-3.1,14.3-0.2
	c9.4,5.7,19,5.7,28.4,0c4.6-2.7,9.1-2.7,13.8,0c9.4,5.6,19,5.6,28.4,0c4.4-2.6,8.9-2.9,13.4-0.2c9.8,5.9,19.5,5.9,29.3,0
	c4.2-2.6,8.6-2.6,12.8,0c9.8,5.9,19.5,5.9,29.3,0c4-2.4,8.2-2.7,12.3-0.2c9.9,6.1,19.9,6.1,29.8,0.2c4-2.4,8.2-2.7,12.3-0.2
	c9.9,6.1,19.9,6.1,29.8,0.2c4-2.4,8.2-2.7,12.3-0.2c9.8,6.1,19.8,6.1,29.7,0.1c4.5-2.7,8.9-2.4,13.3,0.3c9.2,5.6,18.6,5.6,27.9,0.2
	c5.4-3.1,10.2-2.7,15.6,0.4c8.3,4.9,17.3,5,25.6-0.1c5.5-3.3,10.5-3.3,16-0.1c8.6,5,17.4,5.1,26,0c5.2-3.1,10.1-3.6,15.6-0.2
	c8.6,5.5,17.7,5.3,26.5,0.2c5.6-3.2,10.8-3.2,16.5,0.3c7.8,4.8,16.6,4.9,24.3,0.4c6.7-3.9,12.1-3.8,18.7,0
	c7.7,4.5,16.3,4.3,23.9-0.2c6.3-3.7,11.6-3.5,17.8,0c8.1,4.7,16.8,4.5,24.8-0.2c5.9-3.5,11-3.3,16.9,0c8.5,4.9,17.3,4.7,25.7-0.2
	c5.1-3,9.9-3.6,15.1-0.5c9.2,5.6,18.6,5.5,27.9,0c4.5-2.7,9.1-3,13.8-0.2c9.6,5.8,19.2,5.6,28.8-0.1c4.4-2.7,8.8-2.5,13.4,0
	c2.3,1.3,4.5,2.8,7.2,3.4c7.2,1.7,14,1.2,20.3-2.7c5.4-3.4,10.7-3.4,16.1,0c1.8,1.2,3.7,2.2,5.9,2.7c7.1,1.7,14,1.2,20.3-2.7
	c5.4-3.4,10.7-3.4,16.1,0c1.8,1.2,3.7,2.2,5.9,2.7c7.1,1.7,14,1.2,20.3-2.7c5.3-3.4,10.6-3.4,16,0c2,1.3,4.1,2.2,6.4,2.8
	c7,1.6,13.7,1,19.8-2.8c5.6-3.5,11-3.5,16.4,0.4c1.6,1.2,3.6,1.7,5.5,2.2c7.1,1.8,13.9,1.2,20.3-2.6c4.4-2.6,8.9-4,13.8-1.1
	c10,6.2,20.1,6.3,30.2,0.2c4-2.4,8.2-2.5,12.3,0c9.7,6,19.6,6.1,29.3,0.2c4.7-2.9,9.1-2.6,13.7,0.2c9.1,5.6,18.4,5.6,27.5,0.3
	c5.3-3.1,10.2-3.1,15.6,0.1c8.6,5.1,17.6,5.2,26.1,0c5.4-3.2,10.3-3.3,15.6-0.2c8.8,5.2,17.7,5.4,26.5,0.1c5.2-3.1,10.1-3.3,15.6,0
	c8.5,5.2,17.5,5.1,26.1,0.2c5.8-3.3,11.1-3.3,17,0.2c7.9,4.7,16.5,4.8,24.3,0.2c6.4-3.8,11.8-3.8,18.2,0c7.6,4.6,16.1,4.6,23.5,0.3
	c6.9-3.9,12.5-3.9,19.2,0c7.4,4.3,15.8,4.2,23,0c6.9-4,12.5-4,19.2-0.1c7.4,4.4,15.9,4.3,23,0.1c7-4.2,12.7-3.7,19.6,0.1
	c7.2,4,15.3,4,22.5-0.3c6.6-4,12.4-3.9,19.2,0c7.4,4.3,15.6,4.3,23,0c6.6-3.9,12.4-3.9,19.2,0c7.4,4.3,15.6,4.3,23,0
	c6.6-3.9,12.4-3.9,19.2,0c7.4,4.3,15.6,4.3,23,0c6.6-3.9,12.4-3.9,19.2,0c7.3,4.3,15.4,3.9,23,0.1c3.4-1.7,6.6-3.9,10.7-3.6
	c1.7,0.1,3.4,0.1,4.8-1c0-11.5,0-23,0-34.5H0z"/>
</svg>
