<?xml version="1.0" encoding="utf-8"?>
<!-- Generator: Adobe Illustrator 17.1.0, SVG Export Plug-In . SVG Version: 6.00 Build 0)  -->
<!DOCTYPE svg PUBLIC "-//W3C//DTD SVG 1.1//EN" "http://www.w3.org/Graphics/SVG/1.1/DTD/svg11.dtd">
<svg version="1.1" id="Layer_1" xmlns="http://www.w3.org/2000/svg" xmlns:xlink="http://www.w3.org/1999/xlink" x="0px" y="0px"
	 viewBox="0 0 101.9 72.2" enable-background="new 0 0 101.9 72.2" xml:space="preserve">
<g>
	<path fill="#FFFFFF" d="M27.2,67.7c14.7-0.5,22.2-8.4,24.1-22.4c-0.1-0.1-0.2-0.1-0.3-0.2c-0.1,0.4-0.2,0.9-0.3,1.3
		c-0.8,3.1-2.1,5.9-4,8.4c-4,5.5-9.6,8.3-16.4,8.9c-3.3,0.3-6.6,0.2-9.8-0.9c-3-1-5.6-2.7-7.5-5.1c-1.6-1.9-3-4-4.4-6.1
		c-1-1.6-2.3-2.9-4.1-3.7c-0.9-0.4-1-0.7-0.2-1.3C5.4,46,6.4,45.6,7.4,45c0.3-0.2,0.7-0.2,1.1-0.3c0-0.1,0.1-0.2,0.1-0.3
		c-0.8-0.5-1.5-1-2.3-1.4c-0.4-0.3-0.9-0.4-1.4-0.6c-1.4-0.6-1.4-0.8-0.3-1.8c1.1-1,2.4-1.2,3.7-1.4c0.4-0.1,0.8-0.1,1.4-0.1
		c-3-1.3-4.8-3.5-6.1-6.2c-1.3-2.6-2-5.3-1.6-8.3c0.1-0.4,0.3-0.8,0.5-1.2c0.4,0.2,0.9,0.4,1.2,0.7c1.5,1.8,3.3,3.3,5.3,4.5
		c4,2.6,8.4,4.4,13,5.5c4.9,1.2,9.8,1.8,14.8,1.9c5.7,0.1,9.9-2.2,12.3-7.5c1.2-2.5,2.2-5.1,3.2-7.6c0.9-2.2,1.8-4.5,2.8-6.7
		c0.6-1.2,1.5-2.3,2.3-3.5c-1.5-1.3-2.1-2.9-1.1-4.8c1.1-2.1,3-2.4,5.1-1.9c1-1.7,2.2-3,4.3-2.8c1.9,0.2,3.3,1.1,3.7,3.1
		c3-0.8,4.2,0.3,5.2,1.7c0.9,1.5,0.4,2.9-1.4,4.7c0.3,0.4,0.6,0.9,0.8,1.3c0.4,1,0.9,2.1,1.1,3.2c0.1,0.9,0.4,1.5,1,2.1
		c1.2,1.2,2.3,2.6,2.5,4.4c0.1,0.5,0.1,1.1,0.1,1.7c-0.8-0.2-1.4-0.5-2-0.6c-1.1-0.1-2.2-0.2-3.3-0.2c-0.3,0-0.7,0.2-1,0.4
		c-2.4,2-3.3,4.7-3,7.7c0.3,3,0.8,5.9,1.5,8.8c0.7,2.9,1,5.8,0.9,8.7c-0.1,4.7-1.8,8.9-5,12.4c-3.1,3.4-4.7,5.2-11.3,7.2
		C48.9,69.9,30.2,70.8,27.2,67.7z M70.7,14.3c-0.7,0-1.3,0.6-1.3,1.2c0,0.7,0.6,1.3,1.3,1.3c0.8,0,1.4-0.5,1.4-1.2
		C72.1,14.9,71.5,14.3,70.7,14.3z"/>
</g>
<g>
	<path fill="#FFFFFF" d="M67.4,62.9c0-0.2,0-0.4,0-0.6c0,0,0-0.1,0-0.1c0-0.2,0-0.3,0-0.5c0.1-0.6,0.2-1.2,0.4-1.9
		c0.6-1.9,1.4-3.8,2.6-5.5c0.6-0.9,1.3-1.7,2.1-2.5c0.5-0.4,1.1-0.8,1.7-1.1c0.5-0.2,1-0.4,1.5-0.4c0.1,0,0.3,0,0.4,0
		c0.1,0,0.3,0,0.4,0c0,0,0,0,0.1,0c0.2,0,0.4,0,0.5,0.1c0.6,0.1,1.2,0.4,1.8,0.8c0.7,0.5,1.3,1,1.8,1.7c0.8,1,1.4,2,2,3.1
		c0,0,0,0,0,0c0,0,0,0-0.1,0c-0.3,0.2-0.6,0.3-0.9,0.5C79.5,58,78.2,60,78,62.5c-0.1,0.9,0,1.8,0.3,2.7c0.4,1.5,1.2,2.8,2.5,3.9
		c0.1,0.1,0.1,0.1,0.2,0.2c0,0,0,0,0,0c-1.3,0.8-2.8,1.3-4.4,1.4c-0.6,0-1.3,0-1.9-0.1c-0.7-0.1-1.3-0.3-1.9-0.5
		c-1.3-0.5-2.5-1.3-3.4-2.3c-1.1-1.3-1.8-2.8-1.9-4.4C67.4,63.1,67.4,63,67.4,62.9z M76.1,69.5c0-0.1-0.9-0.4-1.3-0.5
		c-1-0.2-2-0.6-2.8-1.1c-2-1.2-3-2.8-3.2-4.9c0-0.4-0.1-1.3-0.3-1.3c-0.1,0-0.1,2,0.1,2.7c0.5,1.7,1.6,3,3.3,4
		c0.8,0.5,1.7,0.8,2.6,1C74.9,69.5,76,69.6,76.1,69.5z"/>
	<path fill="#FFFFFF" d="M86.7,70.8c-1.9-0.1-3.6-0.7-5.2-1.8c-0.2-0.2-0.4-0.4-0.5-0.6c-0.1-0.2-0.3-0.3-0.4-0.5
		c-1-1.1-1.7-2.3-2-3.7c-0.1-0.7-0.1-1.3-0.1-2c0.2-1.5,0.8-2.7,1.8-3.9c0.7-0.8,1.6-1.4,2.6-1.9c0.6-0.3,1.3-0.6,2-0.7
		c0.7-0.1,1.3-0.2,2-0.2c0.8,0,1.6,0.1,2.4,0.2c2.4,0.4,4.7,1.2,6.8,2.3c0.9,0.5,1.8,1,2.6,1.6c0.7,0.5,1.3,1.1,1.7,1.8
		c0.3,0.5,0.6,1,0.7,1.5c0.1,0.7,0,1.3-0.3,1.9c-0.3,0.6-0.7,1.1-1.2,1.6c-0.6,0.6-1.4,1.1-2.1,1.5c-1.2,0.7-2.4,1.2-3.7,1.6
		c-1.2,0.4-2.5,0.7-3.8,1C88.9,70.8,87.9,70.9,86.7,70.8z M86.5,56.3c-0.7,0.1-1.4,0.2-2.1,0.5c-1.7,0.6-3,1.7-3.8,3.1
		c-0.5,0.8-1,3.3-0.9,3.3c0.1,0,0.8-2.1,1.1-2.8c0.8-1.5,2.1-2.7,3.9-3.3c0.7-0.2,1.4-0.4,2.2-0.4c0.4,0,1.5-0.1,1.5-0.2
		C88.3,56.4,86.9,56.3,86.5,56.3z"/>
</g>
<path fill="#FFFFFF" d="M39.3,46.7c0,0-5.5,9.3,2.8,11.8"/>
<path fill="#FFFFFF" d="M70.8,69.4"/>
<path fill="#FFFFFF" d="M86.3,48.9"/>
</svg>
