<?xml version="1.0" encoding="utf-8"?>
<!-- Generator: Adobe Illustrator 17.1.0, SVG Export Plug-In . SVG Version: 6.00 Build 0)  -->
<!DOCTYPE svg PUBLIC "-//W3C//DTD SVG 1.1//EN" "http://www.w3.org/Graphics/SVG/1.1/DTD/svg11.dtd">
<svg version="1.1" id="Capa_1" xmlns="http://www.w3.org/2000/svg" xmlns:xlink="http://www.w3.org/1999/xlink" x="0px" y="0px"
	 viewBox="0 0 512 512" enable-background="new 0 0 512 512" xml:space="preserve">
<g>
	<g>
		<path fill="#8DC04B" d="M254.2,274L490.8,82.9c-6.8-4.8-15.2-7.2-24.4-7.2H42c-9.2,0-17.6,2.4-24.4,7.2L254.2,274z"/>
		<path fill="#8DC04B" d="M303,255.2l200.2,161.5c5.2-7.2,8.8-16,8.8-25.3V118.9c0-9.6-4-18-8.8-25.3L303,255.2z"/>
		<path fill="#8DC04B" d="M7.2,93.7C2,100.9,0,109.7,0,118.9v272.5c0,9.6,2,18,7.2,25.3l199.4-161.5L7.2,93.7z"/>
		<path fill="#8DC04B" d="M290.2,265.6l-30.8,25.3c-1.6,1.2-3.2,1.6-5.2,1.6c-2,0-3.6-0.4-5.2-1.6l-30.8-25.3L17.6,428.3
			c6.8,4.8,15.2,8,24.4,8h424.3c9.2,0,17.6-3.2,24.4-8L290.2,265.6z"/>
	</g>
</g>
</svg>
