<?xml version="1.0" encoding="utf-8"?>
<!-- Generator: Adobe Illustrator 17.1.0, SVG Export Plug-In . SVG Version: 6.00 Build 0)  -->
<!DOCTYPE svg PUBLIC "-//W3C//DTD SVG 1.1//EN" "http://www.w3.org/Graphics/SVG/1.1/DTD/svg11.dtd">
<svg version="1.1" id="Layer_1" xmlns="http://www.w3.org/2000/svg" xmlns:xlink="http://www.w3.org/1999/xlink" x="0px" y="0px"
	 viewBox="0 0 1593.8 350.7" enable-background="new 0 0 1593.8 350.7" xml:space="preserve">
<path fill="#8DC049" d="M0,327.5c0-106.7,0-213.3,0-320C4.1,7.3,8,8.2,11.4,10.4c5.6,3.7,11,3.8,16.9,0.3c8.4-5,17.1-5,25.6,0
	c5.6,3.3,10.8,3.3,16.4,0c8.4-5,17.1-5,25.6,0c5.6,3.3,10.8,3.3,16.4,0c8.4-5,17.1-5,25.6,0c5.6,3.3,10.8,3.3,16.4,0
	c8.4-5,17.1-5,25.6,0c5.6,3.3,10.8,3.3,16.4,0c8.4-5,17.1-4.9,25.6,0c5.6,3.3,10.7,3.3,16.4-0.1c8-4.7,16.6-5,24.7-0.3
	c6.3,3.6,11.7,3.6,18.2-0.1c7.6-4.4,16.1-4.5,23.8,0.1c6.3,3.8,11.7,3.7,18.1-0.1c7.6-4.5,16.1-4.4,23.8,0c6.3,3.6,11.7,3.8,18.2,0
	c7.8-4.6,16.4-4.5,24.2,0.3c5.8,3.5,11,3.5,16.8,0.2c8.2-4.7,16.8-5.1,25-0.1c5.7,3.5,11.1,3.5,16.9,0.1c8.2-4.9,16.8-5,25-0.1
	c5.7,3.4,11,3.6,16.8,0c8.2-5,16.9-4.8,25,0c5.6,3.3,10.6,3.7,16.3,0.3c8.9-5.3,18-5,26.9,0.3c4.5,2.7,8.9,3.2,13.6,0.4
	c9.7-5.9,19.4-6,29.2,0c4.9,3,9.6,2,14.1-0.8c6.3-3.8,13.1-4.5,20.2-2.7c2.1,0.5,4.2,1.2,6,2.4c5.2,3.7,10.5,3.6,15.9,0.3
	c6.3-3.9,13-4.5,20.2-2.8c2.7,0.6,4.9,2.1,7.2,3.3c4.5,2.5,8.9,2.8,13.3,0.1c9.8-5.9,19.5-5.8,29.2,0.1c4.2,2.6,8.6,2.5,12.8-0.1
	c9.8-5.9,19.5-5.8,29.2,0.1c4.2,2.6,8.6,2.5,12.8-0.1c9.8-5.9,19.5-5.8,29.2,0.1c4.2,2.6,8.6,2.5,12.8-0.1
	c9.8-5.9,19.5-5.8,29.2,0.1c4.2,2.6,8.6,2.5,12.8-0.1c9.8-5.9,19.5-5.8,29.2,0.1c4.4,2.7,8.9,2.3,13.2-0.3
	c9.1-5.4,18.3-5.7,27.4-0.3c5.5,3.2,10.4,2.8,15.9-0.4c8-4.7,16.6-4.9,24.7-0.3c6.1,3.5,11.4,3.8,17.7,0.1
	c7.6-4.5,16.1-4.8,23.8-0.3c6.5,3.8,11.9,4,18.6,0.1c7.4-4.4,15.8-4.4,23.4-0.1c6.4,3.6,11.9,4.1,18.6,0.1
	c7.7-4.6,16.4-4.4,24.2,0.4c5.8,3.6,11,3.4,16.8,0.1c8.3-4.7,16.8-5,25.1,0.1c5.7,3.5,11.1,3.4,16.9,0c8.2-4.9,16.8-4.9,25,0
	c5.7,3.4,10.9,3.4,16.8-0.1c8.2-4.9,16.9-4.7,25.1,0.1c5.5,3.3,10.4,3.4,15.9,0.2c9.1-5.3,18.3-5.1,27.4,0.4c4.3,2.6,8.6,3,13.2,0.3
	c9.9-6,19.8-6,29.6,0.1c4.7,2.9,9.3,1.8,13.7-0.8c6.3-3.8,13.1-4.5,20.2-2.8c2.1,0.5,4.2,1.1,6,2.4c5.2,3.7,10.4,3.8,15.9,0.4
	c6.6-4.1,13.7-4.6,21.1-2.6c2.3,0.6,4.3,1.7,6.3,3c4.3,2.7,8.8,3,13.2,0.3c9.7-5.9,19.4-6,29.2-0.1c4.4,2.7,8.9,2.5,13.2-0.2
	c9.4-5.6,18.9-5.8,28.3-0.1c4.8,2.9,9.4,2.6,14.2-0.2c9.1-5.4,18.3-5.5,27.4-0.1c5.1,3.1,10,2.8,15.1-0.2c8.8-5.2,17.7-5.3,26.5-0.1
	c5.5,3.3,10.7,3.3,15.9-0.2c3.6-2.4,7.7-3.1,11.8-3.5c2.5-0.3,5.4-0.5,7.1,2.4c0,106.7,0,213.3,0,320c-1.4,1.1-3.1,1.1-4.8,1
	c-4.1-0.3-7.3,1.9-10.7,3.6c-7.6,3.8-15.6,4.2-22.9-0.1c-6.7-3.9-12.5-3.9-19.1,0c-7.4,4.3-15.5,4.3-22.9,0
	c-6.7-3.9-12.5-3.9-19.1,0c-7.4,4.3-15.5,4.3-22.9,0c-6.7-3.9-12.5-3.9-19.1,0c-7.4,4.3-15.5,4.3-22.9,0c-6.7-3.9-12.5-4-19.1,0
	c-7.2,4.3-15.2,4.3-22.4,0.3c-6.8-3.8-12.5-4.3-19.5-0.1c-7.1,4.2-15.5,4.3-22.9-0.1c-6.6-3.9-12.2-3.9-19.1,0.1
	c-7.2,4.2-15.5,4.3-22.9,0c-6.6-3.9-12.2-3.9-19.1,0c-7.4,4.3-15.8,4.3-23.4-0.3c-6.3-3.8-11.7-3.8-18.1,0
	c-7.8,4.6-16.3,4.5-24.2-0.2c-5.8-3.5-11.1-3.5-16.9-0.2c-8.6,4.9-17.5,5-26-0.2c-5.4-3.3-10.3-3.1-15.5,0
	c-8.8,5.3-17.6,5.1-26.4-0.1c-5.2-3.1-10.1-3-15.5,0.2c-8.5,5.2-17.4,5.1-26,0c-5.3-3.2-10.2-3.2-15.5-0.1
	c-9.1,5.3-18.3,5.3-27.4-0.3c-4.5-2.8-8.9-3.1-13.6-0.2c-9.7,5.9-19.5,5.8-29.2-0.2c-4.1-2.5-8.3-2.4-12.3,0
	c-10.1,6.1-20.1,6-30.1-0.2c-4.8-2.9-9.3-1.5-13.7,1.1c-6.4,3.8-13.1,4.4-20.2,2.6c-1.9-0.5-3.9-1-5.5-2.2
	c-5.3-3.9-10.7-3.9-16.3-0.4c-6.1,3.8-12.7,4.4-19.7,2.8c-2.3-0.6-4.4-1.5-6.4-2.8c-5.3-3.4-10.6-3.4-15.9,0
	c-6.3,3.9-13.1,4.4-20.2,2.7c-2.2-0.5-4.1-1.5-5.9-2.7c-5.3-3.4-10.6-3.4-16,0c-6.3,3.9-13.1,4.4-20.2,2.7c-2.2-0.5-4.1-1.5-5.9-2.7
	c-5.3-3.4-10.6-3.4-16,0c-6.3,3.9-13,4.4-20.2,2.7c-2.7-0.6-4.9-2.1-7.2-3.4c-4.5-2.5-8.9-2.7-13.3,0c-9.6,5.7-19.1,5.9-28.7,0.1
	c-4.6-2.8-9.2-2.5-13.7,0.2c-9.3,5.5-18.6,5.6-27.8,0c-5.1-3.1-9.9-2.5-15,0.5c-8.4,4.9-17.1,5.1-25.6,0.2c-5.8-3.3-10.9-3.5-16.8,0
	c-8,4.7-16.6,4.9-24.7,0.2c-6.1-3.5-11.4-3.7-17.7,0c-7.6,4.5-16.1,4.7-23.8,0.2c-6.5-3.8-11.9-3.9-18.6,0
	c-7.7,4.5-16.4,4.4-24.2-0.4c-5.6-3.5-10.8-3.5-16.4-0.3c-8.8,5.1-17.8,5.3-26.4-0.2c-5.4-3.4-10.3-2.9-15.5,0.2
	c-8.6,5.1-17.3,5-25.9,0c-5.4-3.2-10.4-3.2-15.9,0.1c-8.3,5.1-17.2,5-25.5,0.1c-5.3-3.1-10.1-3.5-15.5-0.4
	c-9.3,5.4-18.6,5.4-27.8-0.2c-4.3-2.7-8.7-3-13.2-0.3c-9.9,6-19.8,6-29.6-0.1c-4.1-2.5-8.3-2.2-12.3,0.2c-9.9,5.9-19.8,5.9-29.7-0.2
	c-4.1-2.5-8.3-2.2-12.3,0.2c-9.9,5.9-19.8,5.9-29.7-0.2c-4.1-2.5-8.3-2.2-12.3,0.2c-9.8,5.9-19.4,5.9-29.2,0
	c-4.2-2.6-8.6-2.6-12.8,0c-9.8,5.9-19.4,5.9-29.2,0c-4.4-2.7-8.9-2.4-13.3,0.2c-9.4,5.6-18.9,5.6-28.3,0c-4.6-2.7-9.1-2.7-13.7,0
	c-9.4,5.7-18.9,5.7-28.3,0c-4.8-2.9-9.5-2.6-14.2,0.2c-10.3,6.2-20.3,4.8-30.1-1.4C2,330.4,1,329,0,327.5z"/>
</svg>
