<?xml version="1.0" encoding="utf-8"?>
<!-- Generator: Adobe Illustrator 17.1.0, SVG Export Plug-In . SVG Version: 6.00 Build 0)  -->
<!DOCTYPE svg PUBLIC "-//W3C//DTD SVG 1.1//EN" "http://www.w3.org/Graphics/SVG/1.1/DTD/svg11.dtd">
<svg version="1.1" id="Layer_1" xmlns="http://www.w3.org/2000/svg" xmlns:xlink="http://www.w3.org/1999/xlink" x="0px" y="0px"
	 viewBox="0 320 1600 80" enable-background="new 0 320 1600 80" xml:space="preserve">
<path fill="#FFFFFF" d="M0,352.7C0,245.6,0,138.6,0,31.5c4.1-0.2,8,0.7,11.4,2.9c5.6,3.7,11,3.8,17,0.3c8.4-5,17.2-5,25.7,0
	c5.6,3.3,10.8,3.3,16.5,0c8.4-5,17.2-5,25.7,0c5.6,3.3,10.8,3.3,16.5,0c8.4-5,17.2-5,25.7,0c5.6,3.3,10.8,3.3,16.5,0
	c8.4-5,17.2-5,25.7,0c5.6,3.3,10.8,3.3,16.5,0c8.4-5,17.2-4.9,25.7,0c5.6,3.3,10.7,3.3,16.5-0.1c8-4.7,16.7-5,24.8-0.3
	c6.3,3.6,11.7,3.6,18.3-0.1c7.6-4.4,16.2-4.5,23.9,0.1c6.3,3.8,11.7,3.7,18.2-0.1c7.6-4.5,16.2-4.4,23.9,0c6.3,3.6,11.7,3.8,18.3,0
	c7.8-4.6,16.5-4.5,24.3,0.3c5.8,3.5,11,3.5,16.9,0.2c8.2-4.7,16.9-5.1,25.1-0.1c5.7,3.5,11.1,3.5,17,0.1c8.2-4.9,16.9-5,25.1-0.1
	c5.7,3.4,11,3.6,16.9,0c8.2-5,17-4.8,25.1,0c5.6,3.3,10.6,3.7,16.4,0.3c8.9-5.3,18.1-5,27,0.3c4.5,2.7,8.9,3.2,13.7,0.4
	c9.7-5.9,19.5-6,29.3,0c4.9,3,9.6,2,14.2-0.8c6.3-3.8,13.2-4.5,20.3-2.7c2.1,0.5,4.2,1.2,6,2.4c5.2,3.7,10.5,3.6,16,0.3
	c6.3-3.9,13.1-4.5,20.3-2.8c2.7,0.6,4.9,2.1,7.2,3.3c4.5,2.5,8.9,2.8,13.4,0.1c9.8-5.9,19.6-5.8,29.3,0.1c4.2,2.6,8.6,2.5,12.8-0.1
	c9.8-5.9,19.6-5.8,29.3,0.1c4.2,2.6,8.6,2.5,12.8-0.1c9.8-5.9,19.6-5.8,29.3,0.1c4.2,2.6,8.6,2.5,12.8-0.1
	c9.8-5.9,19.6-5.8,29.3,0.1c4.2,2.6,8.6,2.5,12.8-0.1c9.8-5.9,19.6-5.8,29.3,0.1c4.4,2.7,8.9,2.3,13.3-0.3
	c9.1-5.4,18.4-5.7,27.5-0.3c5.5,3.2,10.4,2.8,16-0.4c8-4.7,16.7-4.9,24.8-0.3c6.1,3.5,11.4,3.8,17.8,0.1c7.6-4.5,16.2-4.8,23.9-0.3
	c6.5,3.8,11.9,4,18.7,0.1c7.4-4.4,15.9-4.4,23.5-0.1c6.4,3.6,11.9,4.1,18.7,0.1c7.7-4.6,16.5-4.4,24.3,0.4c5.8,3.6,11,3.4,16.9,0.1
	c8.3-4.7,16.9-5,25.2,0.1c5.7,3.5,11.1,3.4,17,0c8.2-4.9,16.9-4.9,25.1,0c5.7,3.4,10.9,3.4,16.9-0.1c8.2-4.9,17-4.7,25.2,0.1
	c5.5,3.3,10.4,3.4,16,0.2c9.1-5.3,18.4-5.1,27.5,0.4c4.3,2.6,8.6,3,13.3,0.3c9.9-6,19.9-6,29.7,0.1c4.7,2.9,9.3,1.8,13.8-0.8
	c6.3-3.8,13.2-4.5,20.3-2.8c2.1,0.5,4.2,1.1,6,2.4c5.2,3.7,10.4,3.8,16,0.4c6.6-4.1,13.8-4.6,21.2-2.6c2.3,0.6,4.3,1.7,6.3,3
	c4.3,2.7,8.8,3,13.3,0.3c9.7-5.9,19.5-6,29.3-0.1c4.4,2.7,8.9,2.5,13.3-0.2c9.4-5.6,19-5.8,28.4-0.1c4.8,2.9,9.4,2.6,14.3-0.2
	c9.1-5.4,18.4-5.5,27.5-0.1c5.1,3.1,10,2.8,15.2-0.2c8.8-5.2,17.8-5.3,26.6-0.1c5.5,3.3,10.7,3.3,16-0.2c3.6-2.4,7.7-3.1,11.8-3.5
	c2.5-0.3,5.4-0.5,7.1,2.4c0,107.1,0,214.1,0,321.2c-1.4,1.1-3.1,1.1-4.8,1c-4.1-0.3-7.3,1.9-10.7,3.6c-7.6,3.8-15.7,4.2-23-0.1
	c-6.7-3.9-12.5-3.9-19.2,0c-7.4,4.3-15.6,4.3-23,0c-6.7-3.9-12.5-3.9-19.2,0c-7.4,4.3-15.6,4.3-23,0c-6.7-3.9-12.5-3.9-19.2,0
	c-7.4,4.3-15.6,4.3-23,0c-6.7-3.9-12.5-4-19.2,0c-7.2,4.3-15.3,4.3-22.5,0.3c-6.8-3.8-12.5-4.3-19.6-0.1c-7.1,4.2-15.6,4.3-23-0.1
	c-6.6-3.9-12.2-3.9-19.2,0.1c-7.2,4.2-15.6,4.3-23,0c-6.6-3.9-12.2-3.9-19.2,0c-7.4,4.3-15.9,4.3-23.5-0.3c-6.3-3.8-11.7-3.8-18.2,0
	c-7.8,4.6-16.4,4.5-24.3-0.2c-5.8-3.5-11.1-3.5-17-0.2c-8.6,4.9-17.6,5-26.1-0.2c-5.4-3.3-10.3-3.1-15.6,0
	c-8.8,5.3-17.7,5.1-26.5-0.1c-5.2-3.1-10.1-3-15.6,0.2c-8.5,5.2-17.5,5.1-26.1,0c-5.3-3.2-10.2-3.2-15.6-0.1
	c-9.1,5.3-18.4,5.3-27.5-0.3c-4.5-2.8-8.9-3.1-13.7-0.2c-9.7,5.9-19.6,5.8-29.3-0.2c-4.1-2.5-8.3-2.4-12.3,0
	c-10.1,6.1-20.2,6-30.2-0.2c-4.8-2.9-9.3-1.5-13.8,1.1c-6.4,3.8-13.2,4.4-20.3,2.6c-1.9-0.5-3.9-1-5.5-2.2
	c-5.3-3.9-10.7-3.9-16.4-0.4c-6.1,3.8-12.7,4.4-19.8,2.8c-2.3-0.6-4.4-1.5-6.4-2.8c-5.3-3.4-10.6-3.4-16,0
	c-6.3,3.9-13.2,4.4-20.3,2.7c-2.2-0.5-4.1-1.5-5.9-2.7c-5.3-3.4-10.6-3.4-16.1,0c-6.3,3.9-13.2,4.4-20.3,2.7
	c-2.2-0.5-4.1-1.5-5.9-2.7c-5.3-3.4-10.6-3.4-16.1,0c-6.3,3.9-13.1,4.4-20.3,2.7c-2.7-0.6-4.9-2.1-7.2-3.4c-4.5-2.5-8.9-2.7-13.4,0
	c-9.6,5.7-19.2,5.9-28.8,0.1c-4.6-2.8-9.2-2.5-13.8,0.2c-9.3,5.5-18.7,5.6-27.9,0c-5.1-3.1-9.9-2.5-15.1,0.5
	c-8.4,4.9-17.2,5.1-25.7,0.2c-5.8-3.3-10.9-3.5-16.9,0c-8,4.7-16.7,4.9-24.8,0.2c-6.1-3.5-11.4-3.7-17.8,0
	c-7.6,4.5-16.2,4.7-23.9,0.2c-6.5-3.8-11.9-3.9-18.7,0c-7.7,4.5-16.5,4.4-24.3-0.4c-5.6-3.5-10.8-3.5-16.5-0.3
	c-8.8,5.1-17.9,5.3-26.5-0.2c-5.4-3.4-10.3-2.9-15.6,0.2c-8.6,5.1-17.4,5-26,0c-5.4-3.2-10.4-3.2-16,0.1c-8.3,5.1-17.3,5-25.6,0.1
	c-5.3-3.1-10.1-3.5-15.6-0.4c-9.3,5.4-18.7,5.4-27.9-0.2c-4.3-2.7-8.7-3-13.3-0.3c-9.9,6-19.9,6-29.7-0.1c-4.1-2.5-8.3-2.2-12.3,0.2
	c-9.9,5.9-19.9,5.9-29.8-0.2c-4.1-2.5-8.3-2.2-12.3,0.2c-9.9,5.9-19.9,5.9-29.8-0.2c-4.1-2.5-8.3-2.2-12.3,0.2
	c-9.8,5.9-19.5,5.9-29.3,0c-4.2-2.6-8.6-2.6-12.8,0c-9.8,5.9-19.5,5.9-29.3,0c-4.4-2.7-8.9-2.4-13.4,0.2c-9.4,5.6-19,5.6-28.4,0
	c-4.6-2.7-9.1-2.7-13.8,0c-9.4,5.7-19,5.7-28.4,0c-4.8-2.9-9.5-2.6-14.3,0.2c-10.3,6.2-20.4,4.8-30.2-1.4C2,355.7,1,354.2,0,352.7z"
	/>
</svg>
