<?xml version="1.0" encoding="utf-8"?>
<!-- Generator: Adobe Illustrator 17.1.0, SVG Export Plug-In . SVG Version: 6.00 Build 0)  -->
<!DOCTYPE svg PUBLIC "-//W3C//DTD SVG 1.1//EN" "http://www.w3.org/Graphics/SVG/1.1/DTD/svg11.dtd">
<svg version="1.1" id="Layer_1" xmlns="http://www.w3.org/2000/svg" xmlns:xlink="http://www.w3.org/1999/xlink" x="0px" y="0px"
	 viewBox="0 72.5 512 366.5" enable-background="new 0 72.5 512 366.5" xml:space="preserve">
<g>
	<g>
		<g>
			<path fill="#8DC04B" d="M319.3,213.3H153.6v76.8h83.3c-11.2,31.9-38.4,51.2-73.1,51.2c-46.4,0-87.1-39.9-87.1-85.4
				c0-45.4,40.7-85.3,87.1-85.3c22.2,0,40.9,7.1,54.2,20.5l6,6.1l57.1-57.1l-6.2-6c-27.1-26.3-65.5-40.2-111.2-40.2
				C72,93.9,0,165.1,0,256c0,90.9,72,162.2,163.9,162.2c84.7,0,144.9-49.7,157.1-129.7c1.6-10.4,2.4-21.3,2.4-32.5
				c0-12.3-1-25.6-2.8-35.6L319.3,213.3z"/>
			<polygon fill="#8DC04B" points="460.8,213.3 460.8,162.1 401.1,162.1 401.1,213.3 349.9,213.3 349.9,273.1 401.1,273.1 
				401.1,324.3 460.8,324.3 460.8,273.1 512,273.1 512,213.3 			"/>
		</g>
	</g>
</g>
</svg>
