<?xml version="1.0" encoding="utf-8"?>
<!-- Generator: Adobe Illustrator 17.1.0, SVG Export Plug-In . SVG Version: 6.00 Build 0)  -->
<!DOCTYPE svg PUBLIC "-//W3C//DTD SVG 1.1//EN" "http://www.w3.org/Graphics/SVG/1.1/DTD/svg11.dtd">
<svg version="1.1" id="Layer_1" xmlns="http://www.w3.org/2000/svg" xmlns:xlink="http://www.w3.org/1999/xlink" x="0px" y="0px"
	 viewBox="0 0 32.3 36.9" enable-background="new 0 0 32.3 36.9" xml:space="preserve">
<path fill="#8DC049" d="M1.4,26.4l0-16c0-0.4,0.2-0.8,0.5-0.9l13.8-8c0.3-0.2,0.8-0.2,1.1,0l13.8,8c0.3,0.2,0.5,0.6,0.5,0.9l0,16
	c0,0.4-0.2,0.8-0.5,0.9l-13.8,8c-0.3,0.2-0.8,0.2-1.1,0l-13.8-8C1.6,27.2,1.4,26.8,1.4,26.4z"/>
<g>
	<path fill="#FFFFFF" d="M14.1,22.4l-1.1,4H9.4l4.7-15.5h4.6l4.8,15.5h-3.8l-1.2-4H14.1z M18.1,19.8l-1-3.3c-0.3-0.9-0.6-2.1-0.8-3
		h0c-0.2,0.9-0.5,2.1-0.7,3l-0.9,3.3H18.1z"/>
</g>
</svg>
