<?xml version="1.0" encoding="utf-8"?>
<!-- Generator: Adobe Illustrator 17.1.0, SVG Export Plug-In . SVG Version: 6.00 Build 0)  -->
<!DOCTYPE svg PUBLIC "-//W3C//DTD SVG 1.1//EN" "http://www.w3.org/Graphics/SVG/1.1/DTD/svg11.dtd">
<svg version="1.1" id="Layer_1" xmlns="http://www.w3.org/2000/svg" xmlns:xlink="http://www.w3.org/1999/xlink" x="0px" y="0px"
	 viewBox="672.3 65 211.3 170.5" enable-background="new 672.3 65 211.3 170.5" xml:space="preserve">
<g>
	<path fill="#FFFFFF" d="M865.6,134.8c1.9-2.8,5.1-4.2,4.2-8.3c-3.2,0.5-6,4.6-8.3-0.5c-0.5-1.4-1.9-2.8-3.7-1.9s-0.9,2.8,0,4.6
		c0.5,1.4,0.9,2.3,1.9,3.2c0.9,1.4,0.9,2.8-0.9,2.8c-10.2,1.4-11.6,9.3-13,17.6c-4.2,23.6-18.1,38.9-40.8,45.8
		c-4.2,1.4-8.3,2.8-12.5,4.6c-3.2,1.4-5.6,3.7-6,7.4c-0.5,5.1-2.8,5.1-6.5,2.8c-1.9-1.4-4.6-1.9-6,0c-0.9,1.4,1.4,3.7,2.3,5.1
		c0.9,1.4,4.6,1.4,1.4,4.2c-0.9,0.9-1.9,2.8-0.5,3.7c1.4,1.4,2.8,0,4.2-0.9c1.4-0.9,2.3-1.4,3.7-2.3c1.9-1.4,3.2-1.4,4.6,0.5
		c4.6,6.9,11.6,6.9,19,5.6c9.7-1.9,19-4.6,27.8-9.3c25.5-13.4,41.2-33.8,41.7-63.9C878.1,146.8,876.7,138,865.6,134.8z M856.3,149.1
		c-0.9,27.3-22.7,53.3-49.6,58.4c-1.9,0.5-4.2,1.4-5.1-1.4c-0.5-2.3,1.9-2.8,3.7-3.7c1.9-0.9,3.2-1.4,5.1-1.9
		c23.2-6.9,35.7-23.2,39.8-46.8c0.5-1.9,0.5-3.7,0.9-5.6c0.5-1.4,0.5-3.7,2.8-3.2C856.3,145.4,856.8,147.3,856.3,149.1z"/>
	<g>
		<path fill="#FFFFFF" d="M815.6,124.6c-3.2-2.3-5.6-4.2-8.3-1.9c-1.4,1.4-1.4,6,0.9,9.3c1.4,1.9,3.2,2.8,5.6,2.8h0.5
			c0.9,0,1.4,0,1.4,0c2.8,0,3.7-0.9,4.6-1.9c0.9-1.4,0-2.8-1.9-5.1C817.4,126.4,816.5,125.5,815.6,124.6z"/>
		<path fill="#FFFFFF" d="M825.3,176c-14.4,10.7-30.6,13.4-47.7,11.1c-1.9-0.5-4.2,0-3.7-2.8c0.5-2.3,2.8-2.3,4.6-1.9
			c5.1,0,10.2,0,15.7,0c25.5-0.5,55.6-23.6,50-58.8c-3.7-25-19-41.7-41.7-51.9c-6.9-3.2-14.4-4.2-22.2,0.5
			c-12.5,7.4-21.8,17.1-27.8,30.1c-4.2,9.3-11.1,15.3-19,20.8c-9.3,6.5-19.9,11.6-25.9,22.2c-0.9,1.4-2.3,1.4-3.7,2.3
			c-4.2,1.9-8.8,1.4-13,0.5c-5.1-0.9-9.3,1.4-12,5.6c-2.3,3.2-1.9,6.5,0.5,9.3c2.8,3.7,6,6.9,8.3,10.7c0.9,1.9,3.2,2.3,5.6,1.4
			c3.2-0.9,5.6-2.3,8.3-4.2c4.2-2.8,8.8-3.7,13.9-2.8c8.3,1.9,16.7,1.4,25,1.4c12-0.5,23.6-2.3,35.7,0.5c14.8,3.2,29.2,2.8,43.1-3.2
			c0.9-0.5,1.9-1.4,2.8,0c-6.5,5.1-14.4,8.3-22.7,10.2c-9.3,2.3-19,0.5-28.2,0c-3.7,0-8.3-0.5-10.2,2.8c-3.7,6-6.9,6.9-11.1,0.9
			c-0.5-0.9-2.3-1.9-3.2-0.9c-0.5,0.5-0.5,1.9-0.5,3.2c0,1.4,0.5,2.8,0.9,3.7c1.4,1.9,1.4,2.8-0.9,3.7c-1.4,0.5-2.8,1.9-1.9,3.2
			c0.9,1.9,2.8,0.9,4.2,0.9s2.8-0.5,4.2-0.9c1.9-0.5,3.7-0.5,4.2,2.3c1.9,6.9,6.9,11.6,13.9,12c6,0.5,12.5,2.3,17.1-5.6
			c2.8-5.1,10.2-6.5,16.2-7.9c11.6-2.8,21.3-8.8,29.2-18.5c0.9-0.9,2.3-1.9,1.4-3.7C829,172.3,827.2,174.6,825.3,176z M711.4,163
			c-6,0.5-11.1,2.8-15.7,6c-2.8,1.9-6,3.2-6.9-2.3c-0.5-2.3-3.2-3.2-4.6-4.6c-1.4-1.4-3.7-2.8-2.8-5.6c0.9-2.3,3.2-3.7,5.1-3.2
			c8.8,1.4,16.7-1.4,25-2.3c1.9,0,3.2,0,2.8,2.3c-0.5,2.8,0,4.6,3.7,3.7C716.9,160.2,715.1,162.5,711.4,163z M818.8,163
			c-3.2,0-6.9-0.9-11.1-2.8c-24.5-11.6-37-30.6-37-57.9c0.5-7.4,0.9-14.8,5.1-21.8c3.2-5.6,6.9-9.3,13.4-9.3c1.4,0,3.2,0,5.6,0.5
			c27.3,5.1,51.4,38.4,47.2,65.3c-0.9,4.6-2.3,9.3-4.6,13.4C832.3,158.8,825.8,163,818.8,163z"/>
		<path fill="#FFFFFF" d="M836.9,136.6c4.2-24.5-18.1-55.6-43.5-60.2c-1.9-0.5-3.2-0.5-4.6-0.5c-4.2,0-6.5,1.9-9.3,6.9
			c-3.7,6-4.2,13-4.6,19.5c0,25,11.6,43.1,34.7,53.3c10.2,4.6,17.6,2.3,23.2-7.9C835,144.9,836.4,140.8,836.9,136.6z M823.9,134.8
			c-1.9,4.2-6,4.6-8.8,4.6c-0.5,0-0.9,0-1.4,0h-0.5c-3.2,0-6.5-1.9-8.8-4.6c-3.7-4.6-4.6-12-0.5-15.3c1.9-1.4,3.7-2.3,5.6-2.3
			c3.2,0,6,1.9,8.3,3.7c1.9,1.4,2.8,2.8,3.7,3.7C823.5,126.9,826.2,130.1,823.9,134.8z"/>
	</g>
	<path fill="#FFFFFF" d="M815.1,132.9c-4.6-0.5-6.9-2.8-7.4-6.9c0-1.4,0-2.3,1.9-2.3c2.3,0.5,8.3,5.6,8.3,7.4
		C817.9,133.4,816,132.9,815.1,132.9z"/>
</g>
</svg>
