<?xml version="1.0" encoding="utf-8"?>
<!-- Generator: Adobe Illustrator 17.1.0, SVG Export Plug-In . SVG Version: 6.00 Build 0)  -->
<!DOCTYPE svg PUBLIC "-//W3C//DTD SVG 1.1//EN" "http://www.w3.org/Graphics/SVG/1.1/DTD/svg11.dtd">
<svg version="1.1" id="Layer_1" xmlns="http://www.w3.org/2000/svg" xmlns:xlink="http://www.w3.org/1999/xlink" x="0px" y="0px"
	 viewBox="0 0 101.9 72.2" enable-background="new 0 0 101.9 72.2" xml:space="preserve">
<path fill="#FFFFFF" d="M59.7,24.3c-2,2.1-4.2,4.3-8,3.3c3.1,2.8,6.9,3.1,10.6,0.9c1.2-0.7,2.3-1.4,3.5-2.1c2-1.1,4-1.3,6.1-0.4
	c2.7,1.2,5.7,2.1,7.2,5.3c1.2-1.2,2.8-2.3,2.3-4.1c-0.4-1.5-1.6-2.7-2.5-4.2c1.7,0.1,3.5,0.1,5.2,0.3c4,0.3,6,3.3,7.7,6.5
	c6.4,11.4,0.5,23.8-6.8,29.1c-2.8,2-5.9,2.6-9.2,2.7c-5.7,0.1-11.4,0.2-17.2,0c-9-0.3-16.7-7.9-17.7-17.3
	c-0.6-5.9,0.1-11.5,3.9-16.2c2-2.5,4.6-4,7.6-5c0.3-0.1,0.6-0.2,0.8-0.1C55.5,23.4,57.7,23.9,59.7,24.3z"/>
<path fill="#FFFFFF" d="M69,19.6c0,0.9,0,1.7-0.1,2.4c-0.1,0.9,0,1.6,1,1.6c0.9,0,1.9-0.2,2.8-0.4c0.1,0,0.1-0.6,0.1-1
	c-0.1-0.8-0.3-1.6-0.5-2.2c1.5-0.6,2.9-1.2,4.3-1.8c0.3-0.1,0.6-0.3,1-0.3c2.3-0.5,6.7,2.1,7.6,4.2c-2.7,0-5.4,0.1-8.3,0.1
	c1.5,2.6,5.1,3.8,3.3,7.9c-2-2.9-4.9-4-7.8-5.2c-1.9-0.7-3.7-0.7-5.4,0.2c-1.4,0.7-2.8,1.5-4.2,2.4c-2.6,1.6-5.3,1.7-8.2,0.9
	c2.6-0.3,4.2-2.2,5.9-3.9c1.4-1.4,2.9-2.3,4.9-1.7c-1.5-1.2-3-0.7-4.6-0.2c-3.7,1-8.5-0.1-9.7-4.1c2.2-0.4,4.4-0.7,6.6-1.2
	c1.5-0.4,2.6-0.2,3.9,0.6c1.6,0.8,3.4,1.1,5.2,1.6C67.4,19.6,68.1,19.5,69,19.6z"/>
<path fill="#FFFFFF" d="M72.3,22c-2,0.9-2.8,0.4-2.7-1.6c0-1.6-0.1-3.2-0.2-4.8c-0.1-1.3,0.1-2.4,1.2-3.2c1.6-1.1,3.2-2.1,4.9-3
	c-0.1,1.6,0.1,2.7,1.6,3.3c-1.3,0.9-2.5,1.8-3.7,2.6c-1.5,1-2,2.3-1.6,4.1C72,20.2,72.1,21.1,72.3,22z"/>
<path fill="#FFFFFF" d="M46.1,57.7c-0.6,0.6-1.2,1.2-1.9,1.7c-2,1.5-4.4,2.1-6.8,2.4c-3.7,0.4-7.3,0-11-0.7
	c-1.8-0.3-3.7-0.8-5.5-1.2c-2.3-0.6-4.2-1.9-5.9-3.4c-0.9-0.8-1.7-1.6-2.6-2.5c1.2-1.5,1.8-3.1,2.2-4.8c0.5,0.6,0.9,1.1,1.5,1.6
	c0.9,0.8,2,1.1,3.1,1c0.1,0,0.3-0.2,0.3-0.3c0.8-2.3,0.9-4.6,0.4-6.9c0-0.1-0.1-0.3-0.1-0.4c0,0,0,0,0-0.1c0.6,0.2,1.2,0.4,1.7,0.6
	c2,0.6,4.1,0.9,6.1,0.1c1.3-0.6,1.2-0.3,1-1.7c-0.4-2.3-1.6-4.2-3.2-5.9c-0.4-0.4-0.8-0.8-1.3-1.3c0.1,0,0.2,0,0.3,0
	c3,0.5,5.5-0.5,7.5-2.6c1-1,0.9-0.6,0-1.7c-0.9-1-2-1.7-3.3-2.3c-0.1,0-0.2-0.1-0.3-0.2c1.4-0.4,2.2-1.3,2.9-2.4
	c0.2-0.3,0.4-0.2,0.6-0.1c3.7,1.3,6.8,3.3,9,6.7c2.6,4.1,4.8,8.4,6.1,13.2c0.6,2.3,1.1,4.7,0.7,7.1c-0.1,0.9-0.5,1.8-0.8,2.7
	C46.7,56.9,46.4,57.3,46.1,57.7z M33.3,36.7c-0.6-0.1-1.2-0.4-1.7-0.4c-0.7,0-1,0.5-0.9,1.2c0.3,1,1.7,2,2.7,1.9
	c0.7-0.1,1.1-0.6,0.8-1.2C34,37.7,33.6,37.3,33.3,36.7z M37.5,32.5c-0.6-0.1-1.1-0.4-1.7-0.4c-0.7,0-1.1,0.5-0.9,1.2
	c0.3,1,1.6,2,2.7,1.9c0.7,0,1.1-0.6,0.8-1.3C38.2,33.5,37.9,33,37.5,32.5z M33.7,44.7c0.6,0.1,1.1,0.4,1.7,0.4
	c0.7,0,1.1-0.5,0.9-1.2c-0.3-1-1.6-1.9-2.7-1.9c-0.8,0-1.2,0.6-0.8,1.3C33,43.8,33.4,44.2,33.7,44.7z M28.6,56.2
	c-0.6-0.1-1.2-0.4-1.7-0.4c-0.7,0-1,0.5-0.9,1.2c0.3,1,1.6,2,2.7,1.9c0.7-0.1,1.1-0.6,0.8-1.2C29.4,57.1,29,56.7,28.6,56.2z
	 M34.6,51c0.6,0.2,1.1,0.4,1.6,0.4c0.8,0.1,1.2-0.5,0.9-1.3c-0.3-1-1.6-1.9-2.6-1.8c-0.8,0-1.2,0.6-0.9,1.3
	C33.9,50.2,34.3,50.6,34.6,51z M28.7,52.2c0.6,0.1,1.1,0.4,1.6,0.4c0.8,0.1,1.2-0.5,0.9-1.3c-0.3-0.9-1.6-1.8-2.6-1.8
	c-0.8,0-1.2,0.6-0.9,1.3C27.9,51.3,28.3,51.7,28.7,52.2z M21,54.9c-0.6-0.2-1.1-0.4-1.6-0.4c-0.8-0.1-1.2,0.5-1,1.3
	c0.3,1,1.6,1.8,2.6,1.8c0.8,0,1.2-0.6,0.9-1.3C21.8,55.8,21.4,55.4,21,54.9z M23.9,49.5c-0.6-0.2-1.1-0.4-1.7-0.4
	c-0.7,0-1.1,0.5-0.9,1.2c0.3,1,1.6,1.9,2.7,1.9c0.7,0,1.1-0.6,0.9-1.2C24.6,50.5,24.2,50,23.9,49.5z M39.5,41
	c0.6,0.2,1.1,0.4,1.7,0.4c0.8,0.1,1.2-0.5,0.9-1.3c-0.3-1-1.6-1.9-2.6-1.8c-0.7,0-1.1,0.6-0.9,1.2C38.7,40,39.1,40.5,39.5,41z
	 M35.8,56.5c-0.6-0.2-1.1-0.4-1.7-0.4c-0.7,0-1.1,0.5-0.9,1.3c0.3,1,1.6,1.9,2.6,1.8c0.7,0,1.2-0.6,0.9-1.3
	C36.6,57.4,36.2,57,35.8,56.5z M43,45.8c-0.6-0.1-1.2-0.4-1.7-0.4c-0.7,0-1,0.5-0.9,1.2c0.3,1,1.7,2,2.7,1.9
	c0.7-0.1,1.1-0.6,0.8-1.2C43.7,46.7,43.3,46.3,43,45.8z M43.2,53.5c-0.6-0.2-1.2-0.4-1.7-0.4c-0.7,0-1.1,0.5-0.9,1.2
	c0.3,1,1.7,2,2.7,1.9c0.7-0.1,1.1-0.5,0.8-1.2C43.9,54.4,43.5,54,43.2,53.5z"/>
<path fill="#FFFFFF" d="M9.5,26.6c0.2-0.2,0.5-0.3,0.7-0.4c0.5-0.3,1-0.3,1.6,0c0.3,0.1,0.3,0.3,0.3,0.6c-0.4,1.8-0.1,3.4,1.1,4.8
	c0.2,0.3,0.4,0.3,0.7,0.2c3-1.1,5.6-2.8,8-4.9c1.8-1.5,3.4-3.1,5.1-4.7c-0.1,0.9-0.4,1.7-1.1,2.4c0.9,0,1.9,0,2.9,0.1
	c-0.8,2-1.4,3.8-3.6,4.6c1.6,0.7,3,1.6,4.1,2.9c-2,2.4-4.5,3.7-7.7,3.1c0.7,0.7,1.4,1.4,2.1,2.1c1.2,1.3,2,2.9,2.3,4.7
	c0.1,0.7,0.1,0.7-0.5,1c-1.7,0.8-3.5,0.8-5.3,0.3c-0.7-0.2-1.4-0.5-2.2-0.7c0.1,0.3,0.2,0.7,0.2,1c0.4,1.9,0.3,3.7-0.2,5.5
	c-0.1,0.3-0.3,0.4-0.6,0.4c-1.5,0-2.7-0.7-3.6-1.9c-0.1-0.2-0.3-0.3-0.4-0.5c-0.3,0.9-0.5,1.8-0.9,2.7c-0.4,0.8-0.9,1.5-1.5,2.2
	c-0.4,0.5-0.6,0.5-0.9-0.1c-0.3-0.5-0.5-1.1-0.8-1.7c-0.1-0.1-0.1-0.3-0.1-0.5c-0.6,0.3-1.1,0.6-1.6,0.9C8,49,8.7,47.3,9.2,45.5
	c0.9-3,1.6-6.1,2.4-9.1c0.1-0.3,0.1-0.6,0.2-0.8c0.2-0.9,0.1-1.5-0.6-2.3c-1.5-1.7-2-3.8-1.9-6c0-0.2,0-0.3,0-0.5
	C9.4,26.7,9.4,26.7,9.5,26.6z"/>
</svg>
