<?xml version="1.0" encoding="utf-8"?>
<!-- Generator: Adobe Illustrator 17.1.0, SVG Export Plug-In . SVG Version: 6.00 Build 0)  -->
<!DOCTYPE svg PUBLIC "-//W3C//DTD SVG 1.1//EN" "http://www.w3.org/Graphics/SVG/1.1/DTD/svg11.dtd">
<svg version="1.1" id="Layer_1" xmlns="http://www.w3.org/2000/svg" xmlns:xlink="http://www.w3.org/1999/xlink" x="0px" y="0px" fill="#FFF"
	 viewBox="0 210 1599 40" enable-background="new 0 0 1599 300" xml:space="preserve">
<g>
	<path d="M0,215c2.5,0.1,5,0.3,7.5,0.3c244,0,487.9,0,731.9,0c11.6,0,20.7,4.2,28.1,13.7c8.6,11.1,20.5,16.9,35,17.4
		c17.5,0.6,30.2-6.7,40.1-20.6c5.2-7.3,13.4-9.8,22.1-10.5c1.5-0.1,3,0,4.5,0c241,0,481.9,0,722.9,0c2.3,0,4.6-0.2,7-0.3
		c0,28.3,0,56.7,0,85c-533,0-1066,0-1599,0C0,271.7,0,243.3,0,215z"/>
</g>
</svg>
