<?xml version="1.0" encoding="utf-8"?>
<!-- Generator: Adobe Illustrator 17.1.0, SVG Export Plug-In . SVG Version: 6.00 Build 0)  -->
<!DOCTYPE svg PUBLIC "-//W3C//DTD SVG 1.1//EN" "http://www.w3.org/Graphics/SVG/1.1/DTD/svg11.dtd">
<svg version="1.1" id="Capa_1" xmlns="http://www.w3.org/2000/svg" xmlns:xlink="http://www.w3.org/1999/xlink" x="0px" y="0px"
	 viewBox="0 0 512 512" enable-background="new 0 0 512 512" xml:space="preserve">
<g>
	<g>
		<g>
			<path fill="#8DC04B" d="M510.1,389.4c-1.2-2.3-29.7-56.4-108.5-75.5c-5.5-1.4-11.1,0-15.4,3.7c-24.9,21.2-59.2,43.9-74.1,46.2
				c-99.4-48.6-154.9-141.9-157-159.6c-1.2-9.9,21.6-44.9,47.8-73.3c3.3-3.6,5-8.5,4.5-13.4c-6.7-76.7-86.6-114.3-90-115.8
				c-3.2-1.5-6.8-1.9-10.2-1.3C14.9,15.7,1.1,69.5,0.5,71.7c-0.8,3.1-0.6,6.4,0.3,9.4c110.1,341.7,339,405,414.2,425.9l14.1,4.1
				l5.4,0.8l7.2-1.6c2.3-1,56.7-26.7,70-110.2C512.4,396.5,511.8,392.7,510.1,389.4z"/>
		</g>
	</g>
</g>
</svg>
