<?xml version="1.0" encoding="utf-8"?>
<!-- Generator: Adobe Illustrator 17.1.0, SVG Export Plug-In . SVG Version: 6.00 Build 0)  -->
<!DOCTYPE svg PUBLIC "-//W3C//DTD SVG 1.1//EN" "http://www.w3.org/Graphics/SVG/1.1/DTD/svg11.dtd">
<svg version="1.1" id="Layer_1" xmlns="http://www.w3.org/2000/svg" xmlns:xlink="http://www.w3.org/1999/xlink" x="0px" y="0px"
	 viewBox="21 49 263 201" enable-background="new 21 49 263 201" xml:space="preserve">
<g id="XMLID_1_" display="none">
	<path id="XMLID_807_" display="inline" fill="#010101" d="M242.6,176.8c8.6,11.2,17.9,22,25.5,34.5c3.5,5.4,6.7,11.2,9.3,17.6
		c3.5,9.3,0.3,19.1-5.7,19.8h-38c-9.9,1-17.6-4.1-24.3-13.1c-5.4-7-10.2-14.7-15.3-22.3c-2.2-2.9-4.1-5.7-6.7-8
		c-5.1-4.5-9.6-3.2-12.8,4.1c-2.9,7.3-3.8,15.6-4.1,23.6c-0.3,12.1-3.2,15-12.1,15.6c-19.1,1.3-37.7-2.6-54.6-15.6
		c-15-11.5-26.5-27.4-36.7-46c-19.8-35.4-34.8-74.7-48.2-114.9c-2.9-8.9-0.6-13.7,6.7-14c12.4-0.3,24.9-0.3,37.3,0
		c5.1,0,8.3,3.8,10.2,10.2c6.7,22,15,43.1,25.2,62.6c2.9,5.1,5.4,10.2,9.6,14c4.5,4.1,7.7,2.6,9.9-3.8c1.3-4.1,1.9-8.6,2.2-13.1
		c1-15.3,1-30.6-0.6-46c-1-9.6-5.1-15.6-12.1-17.6c-3.5-1-3.2-2.9-1.3-5.4c3.2-4.8,6.1-7.7,11.8-7.7h43.1c6.7,1.9,8.3,5.7,9.3,15
		v63.8c0,3.5,1.3,14,6.1,16.3c3.8,1.6,6.4-2.6,8.6-5.7C195,126.1,202.3,108.8,209,91c2.9-8,5.4-16,8-24.3c1.9-6.1,4.5-8.9,9.6-8.9
		h41.5c1.3,0,2.6,0,3.5,0.3c7,1.6,8.9,5.7,6.7,14.7c-3.8,14.4-10.2,26.5-16.6,38.3c-7,12.8-14.4,25.2-21.1,38
		C234.3,160.9,234.6,166.6,242.6,176.8L242.6,176.8z"/>
</g>
<g>
	<g>
		<path fill="#8DC04B" d="M279.3,74.6c-9.6,3.8-19.5,6.4-30,7.7c10.9-6.1,19.1-15.6,23-26.8c-10.2,5.4-21.4,9.6-33.2,11.8
			c-9.6-9.6-23.3-15.3-38.3-15.3c-29,0-52.3,21.7-52.3,48.5c0,3.8,0.3,7.7,1.3,11.2C106,109.7,67.4,90.3,41.5,60.9
			c-4.5,7-7,15.6-7,24.6c0,16.9,9.3,31.9,23.3,40.5c-8.6-0.3-16.6-2.6-23.6-6.1v0.3c0,23.6,18.2,43.1,42.1,47.6
			c-4.5,1-8.9,1.6-13.7,1.6c-3.5,0-6.7-0.3-9.9-1c6.7,19.5,26.2,33.5,49.1,33.8C84,215.4,61.3,223,36.7,223c-4.1,0-8.3-0.3-12.4-0.6
			c23.3,13.7,50.7,22,80.4,22c95.7,0,148.4-74,148.4-138.2l-0.3-6.4C263.3,93.1,272.3,84.5,279.3,74.6z"/>
	</g>
</g>
<g display="none">
	<path display="inline" fill="#010101" d="M206.5,51.7h-30c-33.5,0-55.2,18.8-55.2,48.5v22.3h-30c-2.6,0-4.8,1.9-4.8,4.1v32.6
		c0,2.2,2.2,4.1,4.8,4.1h30v81.7c0,2.2,2.2,4.1,4.8,4.1h39.3c2.6,0,4.8-1.9,4.8-4.1v-82h35.1c2.6,0,4.8-1.9,4.8-4.1v-32.6
		c0-1-0.6-2.2-1.3-2.9c-1-0.6-2.2-1.3-3.2-1.3h-35.1v-18.8c0-9.3,2.6-13.7,16.6-13.7h20.1c2.6,0,4.8-1.9,4.8-4.1v-30
		C211.3,53.3,209.4,51.7,206.5,51.7z"/>
</g>
</svg>
